<mxfile host="Electron" agent="Mozilla/5.0 (Macintosh; Intel Mac OS X 10_15_7) AppleWebKit/537.36 (KHTML, like Gecko) draw.io/27.0.2 Chrome/134.0.6998.205 Electron/35.3.0 Safari/537.36" version="27.0.2">
  <diagram name="Page-1" id="yqgs_W5QPoelq7Req3Q3">
    <mxGraphModel dx="615" dy="537" grid="1" gridSize="10" guides="1" tooltips="1" connect="1" arrows="1" fold="1" page="1" pageScale="1" pageWidth="850" pageHeight="1100" math="0" shadow="0">
      <root>
        <mxCell id="0" />
        <mxCell id="1" parent="0" />
        <mxCell id="D2OJPv8ee3uac_t6adjC-1" value="&lt;font face=&quot;Courier New&quot;&gt;~p(a)&lt;/font&gt;&lt;div&gt;&lt;span style=&quot;font-family: &amp;quot;Courier New&amp;quot;; background-color: transparent; color: light-dark(rgb(0, 0, 0), rgb(255, 255, 255));&quot;&gt;[t1:1]&lt;/span&gt;&lt;/div&gt;" style="text;strokeColor=none;align=center;fillColor=none;html=1;verticalAlign=middle;whiteSpace=wrap;rounded=0;" parent="1" vertex="1">
          <mxGeometry x="80" y="80" width="60" height="30" as="geometry" />
        </mxCell>
        <mxCell id="D2OJPv8ee3uac_t6adjC-2" value="&lt;font face=&quot;Courier New&quot;&gt;$false&lt;/font&gt;&lt;br&gt;&lt;div&gt;&lt;span style=&quot;font-family: &amp;quot;Courier New&amp;quot;; background-color: transparent; color: light-dark(rgb(0, 0, 0), rgb(255, 255, 255));&quot;&gt;[t3]&lt;/span&gt;&lt;/div&gt;" style="text;strokeColor=none;align=center;fillColor=none;html=1;verticalAlign=middle;whiteSpace=wrap;rounded=0;" parent="1" vertex="1">
          <mxGeometry x="80" y="180" width="60" height="30" as="geometry" />
        </mxCell>
        <mxCell id="D2OJPv8ee3uac_t6adjC-3" value="&lt;font face=&quot;Courier New&quot;&gt;~p(a)&lt;/font&gt;&lt;div&gt;&lt;span style=&quot;font-family: &amp;quot;Courier New&amp;quot;; background-color: transparent; color: light-dark(rgb(0, 0, 0), rgb(255, 255, 255));&quot;&gt;[t4:1]&lt;/span&gt;&lt;/div&gt;" style="text;strokeColor=none;align=center;fillColor=none;html=1;verticalAlign=middle;whiteSpace=wrap;rounded=0;" parent="1" vertex="1">
          <mxGeometry x="160" y="130" width="60" height="30" as="geometry" />
        </mxCell>
        <mxCell id="D2OJPv8ee3uac_t6adjC-4" value="&lt;font face=&quot;Courier New&quot;&gt;p(a)&lt;/font&gt;&lt;div&gt;&lt;span style=&quot;font-family: &amp;quot;Courier New&amp;quot;; background-color: transparent; color: light-dark(rgb(0, 0, 0), rgb(255, 255, 255));&quot;&gt;[t2:1]&lt;/span&gt;&lt;/div&gt;" style="text;strokeColor=none;align=center;fillColor=none;html=1;verticalAlign=middle;whiteSpace=wrap;rounded=0;" parent="1" vertex="1">
          <mxGeometry x="80" y="130" width="60" height="30" as="geometry" />
        </mxCell>
        <mxCell id="D2OJPv8ee3uac_t6adjC-8" value="" style="endArrow=none;html=1;rounded=0;entryX=0.5;entryY=1;entryDx=0;entryDy=0;exitX=0.5;exitY=0;exitDx=0;exitDy=0;" parent="1" source="D2OJPv8ee3uac_t6adjC-2" target="D2OJPv8ee3uac_t6adjC-4" edge="1">
          <mxGeometry width="50" height="50" relative="1" as="geometry">
            <mxPoint x="400" y="510" as="sourcePoint" />
            <mxPoint x="450" y="460" as="targetPoint" />
          </mxGeometry>
        </mxCell>
        <mxCell id="D2OJPv8ee3uac_t6adjC-9" value="" style="endArrow=none;html=1;rounded=0;entryX=0.5;entryY=1;entryDx=0;entryDy=0;" parent="1" source="D2OJPv8ee3uac_t6adjC-4" target="D2OJPv8ee3uac_t6adjC-1" edge="1">
          <mxGeometry width="50" height="50" relative="1" as="geometry">
            <mxPoint x="400" y="510" as="sourcePoint" />
            <mxPoint x="450" y="460" as="targetPoint" />
          </mxGeometry>
        </mxCell>
        <mxCell id="D2OJPv8ee3uac_t6adjC-10" value="&lt;font face=&quot;Courier New&quot;&gt;$false&lt;/font&gt;&lt;br&gt;&lt;div&gt;&lt;span style=&quot;font-family: &amp;quot;Courier New&amp;quot;; background-color: transparent; color: light-dark(rgb(0, 0, 0), rgb(255, 255, 255));&quot;&gt;[t7]&lt;/span&gt;&lt;/div&gt;" style="text;strokeColor=none;align=center;fillColor=none;html=1;verticalAlign=middle;whiteSpace=wrap;rounded=0;" parent="1" vertex="1">
          <mxGeometry x="160" y="230" width="60" height="30" as="geometry" />
        </mxCell>
        <mxCell id="D2OJPv8ee3uac_t6adjC-11" value="&lt;font face=&quot;Courier New&quot;&gt;p(a)&lt;/font&gt;&lt;div&gt;&lt;span style=&quot;font-family: &amp;quot;Courier New&amp;quot;; background-color: transparent; color: light-dark(rgb(0, 0, 0), rgb(255, 255, 255));&quot;&gt;[t6:1]&lt;/span&gt;&lt;/div&gt;" style="text;strokeColor=none;align=center;fillColor=none;html=1;verticalAlign=middle;whiteSpace=wrap;rounded=0;" parent="1" vertex="1">
          <mxGeometry x="160" y="180" width="60" height="30" as="geometry" />
        </mxCell>
        <mxCell id="D2OJPv8ee3uac_t6adjC-12" value="" style="endArrow=none;html=1;rounded=0;entryX=0.5;entryY=1;entryDx=0;entryDy=0;exitX=0.5;exitY=0;exitDx=0;exitDy=0;" parent="1" source="D2OJPv8ee3uac_t6adjC-10" target="D2OJPv8ee3uac_t6adjC-11" edge="1">
          <mxGeometry width="50" height="50" relative="1" as="geometry">
            <mxPoint x="480" y="560" as="sourcePoint" />
            <mxPoint x="530" y="510" as="targetPoint" />
          </mxGeometry>
        </mxCell>
        <mxCell id="D2OJPv8ee3uac_t6adjC-14" value="&lt;font face=&quot;Courier New&quot;&gt;$false&lt;/font&gt;&lt;br&gt;&lt;div&gt;&lt;span style=&quot;font-family: &amp;quot;Courier New&amp;quot;; background-color: transparent; color: light-dark(rgb(0, 0, 0), rgb(255, 255, 255));&quot;&gt;[t12]&lt;/span&gt;&lt;/div&gt;" style="text;strokeColor=none;align=center;fillColor=none;html=1;verticalAlign=middle;whiteSpace=wrap;rounded=0;" parent="1" vertex="1">
          <mxGeometry x="219" y="280" width="60" height="30" as="geometry" />
        </mxCell>
        <mxCell id="D2OJPv8ee3uac_t6adjC-15" value="&lt;font face=&quot;Courier New&quot;&gt;~q(a)&lt;/font&gt;&lt;div&gt;&lt;span style=&quot;font-family: &amp;quot;Courier New&amp;quot;; background-color: transparent; color: light-dark(rgb(0, 0, 0), rgb(255, 255, 255));&quot;&gt;[t10:1]&lt;/span&gt;&lt;/div&gt;" style="text;strokeColor=none;align=center;fillColor=none;html=1;verticalAlign=middle;whiteSpace=wrap;rounded=0;" parent="1" vertex="1">
          <mxGeometry x="219" y="230" width="60" height="30" as="geometry" />
        </mxCell>
        <mxCell id="D2OJPv8ee3uac_t6adjC-16" value="" style="endArrow=none;html=1;rounded=0;entryX=0.5;entryY=1;entryDx=0;entryDy=0;exitX=0.5;exitY=0;exitDx=0;exitDy=0;" parent="1" source="D2OJPv8ee3uac_t6adjC-14" target="D2OJPv8ee3uac_t6adjC-15" edge="1">
          <mxGeometry width="50" height="50" relative="1" as="geometry">
            <mxPoint x="540" y="610" as="sourcePoint" />
            <mxPoint x="590" y="560" as="targetPoint" />
          </mxGeometry>
        </mxCell>
        <mxCell id="D2OJPv8ee3uac_t6adjC-18" value="&lt;font face=&quot;Courier New&quot;&gt;~s(a)&lt;/font&gt;&lt;div&gt;&lt;span style=&quot;font-family: &amp;quot;Courier New&amp;quot;; background-color: transparent; color: light-dark(rgb(0, 0, 0), rgb(255, 255, 255));&quot;&gt;[t8:1]&lt;/span&gt;&lt;/div&gt;" style="text;strokeColor=none;align=center;fillColor=none;html=1;verticalAlign=middle;whiteSpace=wrap;rounded=0;" parent="1" vertex="1">
          <mxGeometry x="260" y="180" width="60" height="30" as="geometry" />
        </mxCell>
        <mxCell id="D2OJPv8ee3uac_t6adjC-19" value="&lt;font face=&quot;Courier New&quot;&gt;q(a)&lt;/font&gt;&lt;div&gt;&lt;span style=&quot;font-family: &amp;quot;Courier New&amp;quot;; background-color: transparent; color: light-dark(rgb(0, 0, 0), rgb(255, 255, 255));&quot;&gt;[t4:2]&lt;/span&gt;&lt;/div&gt;" style="text;strokeColor=none;align=center;fillColor=none;html=1;verticalAlign=middle;whiteSpace=wrap;rounded=0;" parent="1" vertex="1">
          <mxGeometry x="311" y="130" width="60" height="30" as="geometry" />
        </mxCell>
        <mxCell id="D2OJPv8ee3uac_t6adjC-20" value="&lt;font face=&quot;Courier New&quot;&gt;~q(a)&lt;/font&gt;&lt;div&gt;&lt;span style=&quot;font-family: &amp;quot;Courier New&amp;quot;; background-color: transparent; color: light-dark(rgb(0, 0, 0), rgb(255, 255, 255));&quot;&gt;[t8:2]&lt;/span&gt;&lt;/div&gt;" style="text;strokeColor=none;align=center;fillColor=none;html=1;verticalAlign=middle;whiteSpace=wrap;rounded=0;" parent="1" vertex="1">
          <mxGeometry x="360" y="180" width="60" height="30" as="geometry" />
        </mxCell>
        <mxCell id="D2OJPv8ee3uac_t6adjC-21" value="" style="endArrow=none;html=1;rounded=0;entryX=0.5;entryY=1;entryDx=0;entryDy=0;" parent="1" source="D2OJPv8ee3uac_t6adjC-11" target="D2OJPv8ee3uac_t6adjC-3" edge="1">
          <mxGeometry width="50" height="50" relative="1" as="geometry">
            <mxPoint x="380" y="470" as="sourcePoint" />
            <mxPoint x="430" y="420" as="targetPoint" />
          </mxGeometry>
        </mxCell>
        <mxCell id="D2OJPv8ee3uac_t6adjC-22" value="" style="endArrow=none;html=1;rounded=0;exitX=0.5;exitY=0;exitDx=0;exitDy=0;entryX=0.5;entryY=1;entryDx=0;entryDy=0;" parent="1" source="D2OJPv8ee3uac_t6adjC-15" target="D2OJPv8ee3uac_t6adjC-18" edge="1">
          <mxGeometry width="50" height="50" relative="1" as="geometry">
            <mxPoint x="340" y="470" as="sourcePoint" />
            <mxPoint x="390" y="420" as="targetPoint" />
          </mxGeometry>
        </mxCell>
        <mxCell id="D2OJPv8ee3uac_t6adjC-24" value="" style="endArrow=none;html=1;rounded=0;entryX=0.5;entryY=1;entryDx=0;entryDy=0;exitX=0.5;exitY=0;exitDx=0;exitDy=0;" parent="1" source="D2OJPv8ee3uac_t6adjC-25" target="D2OJPv8ee3uac_t6adjC-18" edge="1">
          <mxGeometry width="50" height="50" relative="1" as="geometry">
            <mxPoint x="340" y="470" as="sourcePoint" />
            <mxPoint x="390" y="420" as="targetPoint" />
          </mxGeometry>
        </mxCell>
        <mxCell id="D2OJPv8ee3uac_t6adjC-25" value="&lt;font face=&quot;Courier New&quot;&gt;s(a)&lt;/font&gt;&lt;div&gt;&lt;span style=&quot;font-family: &amp;quot;Courier New&amp;quot;; background-color: transparent; color: light-dark(rgb(0, 0, 0), rgb(255, 255, 255));&quot;&gt;[t10:2]&lt;/span&gt;&lt;/div&gt;" style="text;strokeColor=none;align=center;fillColor=none;html=1;verticalAlign=middle;whiteSpace=wrap;rounded=0;" parent="1" vertex="1">
          <mxGeometry x="300" y="230" width="60" height="30" as="geometry" />
        </mxCell>
        <mxCell id="D2OJPv8ee3uac_t6adjC-32" value="&lt;font face=&quot;Courier New&quot;&gt;$false&lt;/font&gt;&lt;br&gt;&lt;div&gt;&lt;span style=&quot;font-family: &amp;quot;Courier New&amp;quot;; background-color: transparent; color: light-dark(rgb(0, 0, 0), rgb(255, 255, 255));&quot;&gt;[t11]&lt;/span&gt;&lt;/div&gt;" style="text;strokeColor=none;align=center;fillColor=none;html=1;verticalAlign=middle;whiteSpace=wrap;rounded=0;" parent="1" vertex="1">
          <mxGeometry x="300" y="280" width="60" height="30" as="geometry" />
        </mxCell>
        <mxCell id="D2OJPv8ee3uac_t6adjC-33" value="" style="endArrow=none;html=1;rounded=0;entryX=0.5;entryY=1;entryDx=0;entryDy=0;exitX=0.5;exitY=0;exitDx=0;exitDy=0;" parent="1" source="D2OJPv8ee3uac_t6adjC-32" edge="1">
          <mxGeometry width="50" height="50" relative="1" as="geometry">
            <mxPoint x="621" y="610" as="sourcePoint" />
            <mxPoint x="330" y="260" as="targetPoint" />
          </mxGeometry>
        </mxCell>
        <mxCell id="D2OJPv8ee3uac_t6adjC-34" value="" style="endArrow=none;html=1;rounded=0;entryX=0.5;entryY=1;entryDx=0;entryDy=0;exitX=0.5;exitY=0;exitDx=0;exitDy=0;" parent="1" source="D2OJPv8ee3uac_t6adjC-18" target="D2OJPv8ee3uac_t6adjC-19" edge="1">
          <mxGeometry width="50" height="50" relative="1" as="geometry">
            <mxPoint x="351" y="470" as="sourcePoint" />
            <mxPoint x="401" y="420" as="targetPoint" />
          </mxGeometry>
        </mxCell>
        <mxCell id="D2OJPv8ee3uac_t6adjC-35" value="" style="endArrow=none;html=1;rounded=0;exitX=0.5;exitY=0;exitDx=0;exitDy=0;" parent="1" source="D2OJPv8ee3uac_t6adjC-20" edge="1">
          <mxGeometry width="50" height="50" relative="1" as="geometry">
            <mxPoint x="351" y="470" as="sourcePoint" />
            <mxPoint x="341" y="160" as="targetPoint" />
          </mxGeometry>
        </mxCell>
        <mxCell id="D2OJPv8ee3uac_t6adjC-36" value="&lt;font face=&quot;Courier New&quot;&gt;~r(a)&lt;/font&gt;&lt;div&gt;&lt;span style=&quot;font-family: &amp;quot;Courier New&amp;quot;; background-color: transparent; color: light-dark(rgb(0, 0, 0), rgb(255, 255, 255));&quot;&gt;[t1:2]&lt;/span&gt;&lt;/div&gt;" style="text;strokeColor=none;align=center;fillColor=none;html=1;verticalAlign=middle;whiteSpace=wrap;rounded=0;" parent="1" vertex="1">
          <mxGeometry x="311" y="80" width="60" height="30" as="geometry" />
        </mxCell>
        <mxCell id="D2OJPv8ee3uac_t6adjC-37" value="" style="endArrow=none;html=1;rounded=0;entryX=0.5;entryY=1;entryDx=0;entryDy=0;exitX=0.5;exitY=0;exitDx=0;exitDy=0;" parent="1" source="D2OJPv8ee3uac_t6adjC-3" target="D2OJPv8ee3uac_t6adjC-36" edge="1">
          <mxGeometry width="50" height="50" relative="1" as="geometry">
            <mxPoint x="400" y="310" as="sourcePoint" />
            <mxPoint x="450" y="260" as="targetPoint" />
          </mxGeometry>
        </mxCell>
        <mxCell id="D2OJPv8ee3uac_t6adjC-38" value="" style="endArrow=none;html=1;rounded=0;entryX=0.5;entryY=1;entryDx=0;entryDy=0;" parent="1" source="D2OJPv8ee3uac_t6adjC-19" target="D2OJPv8ee3uac_t6adjC-36" edge="1">
          <mxGeometry width="50" height="50" relative="1" as="geometry">
            <mxPoint x="390" y="310" as="sourcePoint" />
            <mxPoint x="440" y="260" as="targetPoint" />
          </mxGeometry>
        </mxCell>
        <mxCell id="D2OJPv8ee3uac_t6adjC-39" value="&lt;font face=&quot;Courier New&quot;&gt;~r(a)&lt;/font&gt;&lt;div&gt;&lt;span style=&quot;font-family: &amp;quot;Courier New&amp;quot;; background-color: transparent; color: light-dark(rgb(0, 0, 0), rgb(255, 255, 255));&quot;&gt;[t4:3]&lt;/span&gt;&lt;/div&gt;" style="text;strokeColor=none;align=center;fillColor=none;html=1;verticalAlign=middle;whiteSpace=wrap;rounded=0;" parent="1" vertex="1">
          <mxGeometry x="430" y="130" width="60" height="30" as="geometry" />
        </mxCell>
        <mxCell id="D2OJPv8ee3uac_t6adjC-40" value="&lt;font face=&quot;Courier New&quot;&gt;$false&lt;/font&gt;&lt;br&gt;&lt;div&gt;&lt;span style=&quot;font-family: &amp;quot;Courier New&amp;quot;; background-color: transparent; color: light-dark(rgb(0, 0, 0), rgb(255, 255, 255));&quot;&gt;[t5]&lt;/span&gt;&lt;/div&gt;" style="text;strokeColor=none;align=center;fillColor=none;html=1;verticalAlign=middle;whiteSpace=wrap;rounded=0;" parent="1" vertex="1">
          <mxGeometry x="430" y="180" width="60" height="30" as="geometry" />
        </mxCell>
        <mxCell id="D2OJPv8ee3uac_t6adjC-41" value="" style="endArrow=none;html=1;rounded=0;entryX=0.5;entryY=1;entryDx=0;entryDy=0;exitX=0.5;exitY=0;exitDx=0;exitDy=0;" parent="1" source="D2OJPv8ee3uac_t6adjC-40" edge="1">
          <mxGeometry width="50" height="50" relative="1" as="geometry">
            <mxPoint x="751" y="510" as="sourcePoint" />
            <mxPoint x="460" y="160" as="targetPoint" />
          </mxGeometry>
        </mxCell>
        <mxCell id="D2OJPv8ee3uac_t6adjC-42" value="" style="endArrow=none;html=1;rounded=0;entryX=0.5;entryY=1;entryDx=0;entryDy=0;exitX=0.5;exitY=0;exitDx=0;exitDy=0;" parent="1" source="D2OJPv8ee3uac_t6adjC-39" target="D2OJPv8ee3uac_t6adjC-36" edge="1">
          <mxGeometry width="50" height="50" relative="1" as="geometry">
            <mxPoint x="460" y="120" as="sourcePoint" />
            <mxPoint x="440" y="260" as="targetPoint" />
          </mxGeometry>
        </mxCell>
        <mxCell id="D2OJPv8ee3uac_t6adjC-44" value="&lt;span style=&quot;background-color: transparent; color: light-dark(rgb(0, 0, 0), rgb(255, 255, 255)); font-family: &amp;quot;Courier New&amp;quot;;&quot;&gt;[0:0]&lt;/span&gt;" style="text;strokeColor=none;align=center;fillColor=none;html=1;verticalAlign=middle;whiteSpace=wrap;rounded=0;" parent="1" vertex="1">
          <mxGeometry x="200" y="40" width="60" height="20" as="geometry" />
        </mxCell>
        <mxCell id="D2OJPv8ee3uac_t6adjC-45" value="" style="endArrow=none;html=1;rounded=0;entryX=0.5;entryY=1;entryDx=0;entryDy=0;exitX=0.5;exitY=0;exitDx=0;exitDy=0;" parent="1" source="D2OJPv8ee3uac_t6adjC-36" target="D2OJPv8ee3uac_t6adjC-44" edge="1">
          <mxGeometry width="50" height="50" relative="1" as="geometry">
            <mxPoint x="400" y="310" as="sourcePoint" />
            <mxPoint x="450" y="260" as="targetPoint" />
          </mxGeometry>
        </mxCell>
        <mxCell id="D2OJPv8ee3uac_t6adjC-46" value="" style="endArrow=none;html=1;rounded=0;exitX=0.5;exitY=0;exitDx=0;exitDy=0;entryX=0.5;entryY=1;entryDx=0;entryDy=0;" parent="1" source="D2OJPv8ee3uac_t6adjC-1" target="D2OJPv8ee3uac_t6adjC-44" edge="1">
          <mxGeometry width="50" height="50" relative="1" as="geometry">
            <mxPoint x="400" y="310" as="sourcePoint" />
            <mxPoint x="220" y="80" as="targetPoint" />
          </mxGeometry>
        </mxCell>
        <mxCell id="QW8QzI5UQnwRoMwFTmDs-1" value="&lt;font face=&quot;Courier New&quot;&gt;$false&lt;/font&gt;&lt;br&gt;&lt;div&gt;&lt;span style=&quot;font-family: &amp;quot;Courier New&amp;quot;; background-color: transparent; color: light-dark(rgb(0, 0, 0), rgb(255, 255, 255));&quot;&gt;[t9]&lt;/span&gt;&lt;/div&gt;" style="text;strokeColor=none;align=center;fillColor=none;html=1;verticalAlign=middle;whiteSpace=wrap;rounded=0;" parent="1" vertex="1">
          <mxGeometry x="360" y="230" width="60" height="30" as="geometry" />
        </mxCell>
        <mxCell id="QW8QzI5UQnwRoMwFTmDs-2" value="" style="endArrow=none;html=1;rounded=0;entryX=0.5;entryY=1;entryDx=0;entryDy=0;exitX=0.5;exitY=0;exitDx=0;exitDy=0;" parent="1" source="QW8QzI5UQnwRoMwFTmDs-1" edge="1">
          <mxGeometry width="50" height="50" relative="1" as="geometry">
            <mxPoint x="681" y="560" as="sourcePoint" />
            <mxPoint x="390" y="210" as="targetPoint" />
          </mxGeometry>
        </mxCell>
        <mxCell id="_AobSJzkWbKVCBCX7303-1" value="&lt;span style=&quot;background-color: transparent; color: light-dark(rgb(0, 0, 0), rgb(255, 255, 255)); font-family: &amp;quot;Courier New&amp;quot;;&quot;&gt;[0:0]&lt;/span&gt;" style="text;strokeColor=none;align=center;fillColor=none;html=1;verticalAlign=middle;whiteSpace=wrap;rounded=0;" vertex="1" parent="1">
          <mxGeometry x="350" y="360" width="60" height="20" as="geometry" />
        </mxCell>
        <mxCell id="_AobSJzkWbKVCBCX7303-2" value="" style="endArrow=none;html=1;rounded=0;entryX=0.5;entryY=1;entryDx=0;entryDy=0;exitX=0.5;exitY=0;exitDx=0;exitDy=0;" edge="1" parent="1" target="_AobSJzkWbKVCBCX7303-1" source="_AobSJzkWbKVCBCX7303-39">
          <mxGeometry width="50" height="50" relative="1" as="geometry">
            <mxPoint x="482" y="400" as="sourcePoint" />
            <mxPoint x="371" y="380" as="targetPoint" />
          </mxGeometry>
        </mxCell>
        <mxCell id="_AobSJzkWbKVCBCX7303-3" value="" style="endArrow=none;html=1;rounded=0;exitX=0.5;exitY=0;exitDx=0;exitDy=0;entryX=0.5;entryY=1;entryDx=0;entryDy=0;" edge="1" parent="1" target="_AobSJzkWbKVCBCX7303-1" source="_AobSJzkWbKVCBCX7303-4">
          <mxGeometry width="50" height="50" relative="1" as="geometry">
            <mxPoint x="260" y="400" as="sourcePoint" />
            <mxPoint x="370" y="400" as="targetPoint" />
          </mxGeometry>
        </mxCell>
        <mxCell id="_AobSJzkWbKVCBCX7303-4" value="&lt;div style=&quot;line-height: 100%;&quot;&gt;&lt;font face=&quot;Courier New&quot;&gt;q(b)&lt;/font&gt;&lt;div&gt;&lt;div&gt;&lt;span style=&quot;font-family: &amp;quot;Courier New&amp;quot;; background-color: transparent; color: light-dark(rgb(0, 0, 0), rgb(255, 255, 255));&quot;&gt;[t1:1]&lt;/span&gt;&lt;/div&gt;&lt;/div&gt;&lt;/div&gt;" style="text;strokeColor=none;align=center;fillColor=none;html=1;verticalAlign=middle;whiteSpace=wrap;rounded=0;" vertex="1" parent="1">
          <mxGeometry x="130" y="400" width="60" height="30" as="geometry" />
        </mxCell>
        <mxCell id="_AobSJzkWbKVCBCX7303-5" value="&lt;div style=&quot;line-height: 100%;&quot;&gt;&lt;font face=&quot;Courier New&quot;&gt;$false&lt;/font&gt;&lt;br&gt;&lt;div&gt;&lt;span style=&quot;font-family: &amp;quot;Courier New&amp;quot;; background-color: transparent; color: light-dark(rgb(0, 0, 0), rgb(255, 255, 255));&quot;&gt;[t3]&lt;/span&gt;&lt;/div&gt;&lt;/div&gt;" style="text;strokeColor=none;align=center;fillColor=none;html=1;verticalAlign=middle;whiteSpace=wrap;rounded=0;" vertex="1" parent="1">
          <mxGeometry x="40" y="500" width="60" height="30" as="geometry" />
        </mxCell>
        <mxCell id="_AobSJzkWbKVCBCX7303-6" value="&lt;div style=&quot;line-height: 100%;&quot;&gt;&lt;font face=&quot;Courier New&quot;&gt;~q(b)&lt;/font&gt;&lt;br&gt;&lt;div&gt;&lt;span style=&quot;font-family: &amp;quot;Courier New&amp;quot;; background-color: transparent; color: light-dark(rgb(0, 0, 0), rgb(255, 255, 255));&quot;&gt;[t2:1]&lt;/span&gt;&lt;/div&gt;&lt;/div&gt;" style="text;strokeColor=none;align=center;fillColor=none;html=1;verticalAlign=middle;whiteSpace=wrap;rounded=0;" vertex="1" parent="1">
          <mxGeometry x="40" y="450" width="60" height="30" as="geometry" />
        </mxCell>
        <mxCell id="_AobSJzkWbKVCBCX7303-7" value="" style="endArrow=none;html=1;rounded=0;entryX=0.5;entryY=1;entryDx=0;entryDy=0;exitX=0.5;exitY=0;exitDx=0;exitDy=0;" edge="1" parent="1" source="_AobSJzkWbKVCBCX7303-5" target="_AobSJzkWbKVCBCX7303-6">
          <mxGeometry width="50" height="50" relative="1" as="geometry">
            <mxPoint x="360" y="830" as="sourcePoint" />
            <mxPoint x="410" y="780" as="targetPoint" />
          </mxGeometry>
        </mxCell>
        <mxCell id="_AobSJzkWbKVCBCX7303-8" value="" style="endArrow=none;html=1;rounded=0;entryX=0.5;entryY=1;entryDx=0;entryDy=0;exitX=0.5;exitY=0;exitDx=0;exitDy=0;" edge="1" parent="1" source="_AobSJzkWbKVCBCX7303-6" target="_AobSJzkWbKVCBCX7303-4">
          <mxGeometry width="50" height="50" relative="1" as="geometry">
            <mxPoint x="360" y="830" as="sourcePoint" />
            <mxPoint x="410" y="780" as="targetPoint" />
          </mxGeometry>
        </mxCell>
        <mxCell id="_AobSJzkWbKVCBCX7303-9" value="&lt;div style=&quot;line-height: 100%;&quot;&gt;&lt;font face=&quot;Courier New&quot;&gt;~p(c)&lt;/font&gt;&lt;br&gt;&lt;div&gt;&lt;span style=&quot;font-family: &amp;quot;Courier New&amp;quot;; background-color: transparent; color: light-dark(rgb(0, 0, 0), rgb(255, 255, 255));&quot;&gt;[t2:2]&lt;/span&gt;&lt;/div&gt;&lt;/div&gt;" style="text;strokeColor=none;align=center;fillColor=none;html=1;verticalAlign=middle;whiteSpace=wrap;rounded=0;" vertex="1" parent="1">
          <mxGeometry x="130" y="450" width="60" height="30" as="geometry" />
        </mxCell>
        <mxCell id="_AobSJzkWbKVCBCX7303-10" value="" style="endArrow=none;html=1;rounded=0;entryX=0.5;entryY=1;entryDx=0;entryDy=0;exitX=0.5;exitY=0;exitDx=0;exitDy=0;" edge="1" parent="1" source="_AobSJzkWbKVCBCX7303-9" target="_AobSJzkWbKVCBCX7303-4">
          <mxGeometry width="50" height="50" relative="1" as="geometry">
            <mxPoint x="400" y="470" as="sourcePoint" />
            <mxPoint x="450" y="420" as="targetPoint" />
          </mxGeometry>
        </mxCell>
        <mxCell id="_AobSJzkWbKVCBCX7303-11" value="&lt;div style=&quot;line-height: 100%;&quot;&gt;&lt;div&gt;&lt;span style=&quot;font-family: &amp;quot;Courier New&amp;quot;; background-color: transparent; color: light-dark(rgb(0, 0, 0), rgb(255, 255, 255));&quot;&gt;p(c)&lt;/span&gt;&lt;/div&gt;&lt;div&gt;&lt;span style=&quot;font-family: &amp;quot;Courier New&amp;quot;; background-color: transparent; color: light-dark(rgb(0, 0, 0), rgb(255, 255, 255));&quot;&gt;[t4:1]&lt;/span&gt;&lt;/div&gt;&lt;/div&gt;" style="text;strokeColor=none;align=center;fillColor=none;html=1;verticalAlign=middle;whiteSpace=wrap;rounded=0;" vertex="1" parent="1">
          <mxGeometry x="90" y="500" width="60" height="30" as="geometry" />
        </mxCell>
        <mxCell id="_AobSJzkWbKVCBCX7303-12" value="&lt;div style=&quot;line-height: 100%;&quot;&gt;&lt;font face=&quot;Courier New&quot;&gt;$false&lt;/font&gt;&lt;br&gt;&lt;div&gt;&lt;span style=&quot;font-family: &amp;quot;Courier New&amp;quot;; background-color: transparent; color: light-dark(rgb(0, 0, 0), rgb(255, 255, 255));&quot;&gt;[t3]&lt;/span&gt;&lt;/div&gt;&lt;/div&gt;" style="text;strokeColor=none;align=center;fillColor=none;html=1;verticalAlign=middle;whiteSpace=wrap;rounded=0;" vertex="1" parent="1">
          <mxGeometry x="90" y="550" width="60" height="30" as="geometry" />
        </mxCell>
        <mxCell id="_AobSJzkWbKVCBCX7303-13" value="" style="endArrow=none;html=1;rounded=0;entryX=0.5;entryY=1;entryDx=0;entryDy=0;exitX=0.5;exitY=0;exitDx=0;exitDy=0;" edge="1" parent="1" source="_AobSJzkWbKVCBCX7303-12" target="_AobSJzkWbKVCBCX7303-11">
          <mxGeometry width="50" height="50" relative="1" as="geometry">
            <mxPoint x="410" y="880" as="sourcePoint" />
            <mxPoint x="120" y="530" as="targetPoint" />
          </mxGeometry>
        </mxCell>
        <mxCell id="_AobSJzkWbKVCBCX7303-14" value="" style="endArrow=none;html=1;rounded=0;exitX=0.5;exitY=0;exitDx=0;exitDy=0;entryX=0.5;entryY=1;entryDx=0;entryDy=0;" edge="1" parent="1" source="_AobSJzkWbKVCBCX7303-11" target="_AobSJzkWbKVCBCX7303-9">
          <mxGeometry width="50" height="50" relative="1" as="geometry">
            <mxPoint x="400" y="470" as="sourcePoint" />
            <mxPoint x="450" y="420" as="targetPoint" />
          </mxGeometry>
        </mxCell>
        <mxCell id="_AobSJzkWbKVCBCX7303-15" value="&lt;div style=&quot;line-height: 100%;&quot;&gt;&lt;font face=&quot;Courier New&quot;&gt;~q(c)&lt;/font&gt;&lt;br&gt;&lt;div&gt;&lt;span style=&quot;font-family: &amp;quot;Courier New&amp;quot;; background-color: transparent; color: light-dark(rgb(0, 0, 0), rgb(255, 255, 255));&quot;&gt;[t4:2]&lt;/span&gt;&lt;/div&gt;&lt;/div&gt;" style="text;strokeColor=none;align=center;fillColor=none;html=1;verticalAlign=middle;whiteSpace=wrap;rounded=0;" vertex="1" parent="1">
          <mxGeometry x="170" y="500" width="60" height="30" as="geometry" />
        </mxCell>
        <mxCell id="_AobSJzkWbKVCBCX7303-16" value="" style="endArrow=none;html=1;rounded=0;exitX=0.5;exitY=0;exitDx=0;exitDy=0;entryX=0.5;entryY=1;entryDx=0;entryDy=0;" edge="1" parent="1" source="_AobSJzkWbKVCBCX7303-15" target="_AobSJzkWbKVCBCX7303-9">
          <mxGeometry width="50" height="50" relative="1" as="geometry">
            <mxPoint x="400" y="470" as="sourcePoint" />
            <mxPoint x="450" y="420" as="targetPoint" />
          </mxGeometry>
        </mxCell>
        <mxCell id="_AobSJzkWbKVCBCX7303-17" value="&lt;div style=&quot;line-height: 100%;&quot;&gt;&lt;font face=&quot;Courier New&quot;&gt;q(c)&lt;/font&gt;&lt;br&gt;&lt;div&gt;&lt;span style=&quot;font-family: &amp;quot;Courier New&amp;quot;; background-color: transparent; color: light-dark(rgb(0, 0, 0), rgb(255, 255, 255));&quot;&gt;[t6:1]&lt;/span&gt;&lt;/div&gt;&lt;/div&gt;" style="text;strokeColor=none;align=center;fillColor=none;html=1;verticalAlign=middle;whiteSpace=wrap;rounded=0;" vertex="1" parent="1">
          <mxGeometry x="140" y="550" width="60" height="30" as="geometry" />
        </mxCell>
        <mxCell id="_AobSJzkWbKVCBCX7303-18" value="" style="endArrow=none;html=1;rounded=0;exitX=0.5;exitY=0;exitDx=0;exitDy=0;entryX=0.5;entryY=1;entryDx=0;entryDy=0;" edge="1" parent="1" source="_AobSJzkWbKVCBCX7303-17" target="_AobSJzkWbKVCBCX7303-15">
          <mxGeometry width="50" height="50" relative="1" as="geometry">
            <mxPoint x="160" y="550" as="sourcePoint" />
            <mxPoint x="420" y="420" as="targetPoint" />
          </mxGeometry>
        </mxCell>
        <mxCell id="_AobSJzkWbKVCBCX7303-20" value="" style="endArrow=none;html=1;rounded=0;entryX=0.5;entryY=1;entryDx=0;entryDy=0;exitX=0.5;exitY=0;exitDx=0;exitDy=0;" edge="1" parent="1" source="_AobSJzkWbKVCBCX7303-19" target="_AobSJzkWbKVCBCX7303-15">
          <mxGeometry width="50" height="50" relative="1" as="geometry">
            <mxPoint x="230" y="560" as="sourcePoint" />
            <mxPoint x="420" y="530" as="targetPoint" />
          </mxGeometry>
        </mxCell>
        <mxCell id="_AobSJzkWbKVCBCX7303-21" value="&lt;div style=&quot;line-height: 100%;&quot;&gt;&lt;font face=&quot;Courier New&quot;&gt;$false&lt;/font&gt;&lt;br&gt;&lt;div&gt;&lt;span style=&quot;font-family: &amp;quot;Courier New&amp;quot;; background-color: transparent; color: light-dark(rgb(0, 0, 0), rgb(255, 255, 255));&quot;&gt;[t7]&lt;/span&gt;&lt;/div&gt;&lt;/div&gt;" style="text;strokeColor=none;align=center;fillColor=none;html=1;verticalAlign=middle;whiteSpace=wrap;rounded=0;" vertex="1" parent="1">
          <mxGeometry x="140" y="600" width="60" height="30" as="geometry" />
        </mxCell>
        <mxCell id="_AobSJzkWbKVCBCX7303-22" value="" style="endArrow=none;html=1;rounded=0;exitX=0.5;exitY=1;exitDx=0;exitDy=0;entryX=0.5;entryY=0;entryDx=0;entryDy=0;" edge="1" parent="1" source="_AobSJzkWbKVCBCX7303-17" target="_AobSJzkWbKVCBCX7303-21">
          <mxGeometry width="50" height="50" relative="1" as="geometry">
            <mxPoint x="160" y="580" as="sourcePoint" />
            <mxPoint x="160" y="600" as="targetPoint" />
          </mxGeometry>
        </mxCell>
        <mxCell id="_AobSJzkWbKVCBCX7303-24" value="&lt;div style=&quot;line-height: 100%;&quot;&gt;&lt;font face=&quot;Courier New&quot;&gt;$false&lt;/font&gt;&lt;br&gt;&lt;div&gt;&lt;span style=&quot;font-family: &amp;quot;Courier New&amp;quot;; background-color: transparent; color: light-dark(rgb(0, 0, 0), rgb(255, 255, 255));&quot;&gt;[t8]&lt;/span&gt;&lt;/div&gt;&lt;/div&gt;" style="text;strokeColor=none;align=center;fillColor=none;html=1;verticalAlign=middle;whiteSpace=wrap;rounded=0;" vertex="1" parent="1">
          <mxGeometry x="200" y="650" width="60" height="30" as="geometry" />
        </mxCell>
        <mxCell id="_AobSJzkWbKVCBCX7303-26" value="&lt;div style=&quot;line-height: 100%;&quot;&gt;&lt;font face=&quot;Courier New&quot;&gt;~r&lt;/font&gt;&lt;br&gt;&lt;div&gt;&lt;span style=&quot;font-family: &amp;quot;Courier New&amp;quot;; background-color: transparent; color: light-dark(rgb(0, 0, 0), rgb(255, 255, 255));&quot;&gt;[t2:3]&lt;/span&gt;&lt;/div&gt;&lt;/div&gt;" style="text;strokeColor=none;align=center;fillColor=none;html=1;verticalAlign=middle;whiteSpace=wrap;rounded=0;" vertex="1" parent="1">
          <mxGeometry x="280" y="450" width="60" height="30" as="geometry" />
        </mxCell>
        <mxCell id="_AobSJzkWbKVCBCX7303-27" value="" style="endArrow=none;html=1;rounded=0;exitX=0.5;exitY=0;exitDx=0;exitDy=0;entryX=0.5;entryY=1;entryDx=0;entryDy=0;" edge="1" parent="1" target="_AobSJzkWbKVCBCX7303-26" source="_AobSJzkWbKVCBCX7303-31">
          <mxGeometry width="50" height="50" relative="1" as="geometry">
            <mxPoint x="260" y="500" as="sourcePoint" />
            <mxPoint x="580" y="420" as="targetPoint" />
          </mxGeometry>
        </mxCell>
        <mxCell id="_AobSJzkWbKVCBCX7303-28" value="&lt;div style=&quot;line-height: 100%;&quot;&gt;&lt;font face=&quot;Courier New&quot;&gt;~p(c)&lt;/font&gt;&lt;br&gt;&lt;div&gt;&lt;span style=&quot;font-family: &amp;quot;Courier New&amp;quot;; background-color: transparent; color: light-dark(rgb(0, 0, 0), rgb(255, 255, 255));&quot;&gt;[t9:2]&lt;/span&gt;&lt;/div&gt;&lt;/div&gt;" style="text;strokeColor=none;align=center;fillColor=none;html=1;verticalAlign=middle;whiteSpace=wrap;rounded=0;" vertex="1" parent="1">
          <mxGeometry x="310" y="500" width="60" height="30" as="geometry" />
        </mxCell>
        <mxCell id="_AobSJzkWbKVCBCX7303-29" value="" style="endArrow=none;html=1;rounded=0;exitX=0.5;exitY=0;exitDx=0;exitDy=0;entryX=0.5;entryY=1;entryDx=0;entryDy=0;" edge="1" parent="1" source="_AobSJzkWbKVCBCX7303-28" target="_AobSJzkWbKVCBCX7303-26">
          <mxGeometry width="50" height="50" relative="1" as="geometry">
            <mxPoint x="530" y="470" as="sourcePoint" />
            <mxPoint x="580" y="420" as="targetPoint" />
          </mxGeometry>
        </mxCell>
        <mxCell id="_AobSJzkWbKVCBCX7303-30" value="" style="endArrow=none;html=1;rounded=0;entryX=0.5;entryY=1;entryDx=0;entryDy=0;exitX=0.5;exitY=0;exitDx=0;exitDy=0;" edge="1" parent="1" source="_AobSJzkWbKVCBCX7303-26" target="_AobSJzkWbKVCBCX7303-4">
          <mxGeometry width="50" height="50" relative="1" as="geometry">
            <mxPoint x="250" y="580" as="sourcePoint" />
            <mxPoint x="300" y="530" as="targetPoint" />
          </mxGeometry>
        </mxCell>
        <mxCell id="_AobSJzkWbKVCBCX7303-31" value="&lt;div style=&quot;line-height: 100%;&quot;&gt;&lt;font face=&quot;Courier New&quot;&gt;r&lt;/font&gt;&lt;br&gt;&lt;div&gt;&lt;span style=&quot;font-family: &amp;quot;Courier New&amp;quot;; background-color: transparent; color: light-dark(rgb(0, 0, 0), rgb(255, 255, 255));&quot;&gt;[t9:1]&lt;/span&gt;&lt;/div&gt;&lt;/div&gt;" style="text;strokeColor=none;align=center;fillColor=none;html=1;verticalAlign=middle;whiteSpace=wrap;rounded=0;" vertex="1" parent="1">
          <mxGeometry x="250" y="500" width="60" height="30" as="geometry" />
        </mxCell>
        <mxCell id="_AobSJzkWbKVCBCX7303-32" value="&lt;div style=&quot;line-height: 100%;&quot;&gt;&lt;font face=&quot;Courier New&quot;&gt;$false&lt;/font&gt;&lt;br&gt;&lt;div&gt;&lt;span style=&quot;font-family: &amp;quot;Courier New&amp;quot;; background-color: transparent; color: light-dark(rgb(0, 0, 0), rgb(255, 255, 255));&quot;&gt;[t10]&lt;/span&gt;&lt;/div&gt;&lt;/div&gt;" style="text;strokeColor=none;align=center;fillColor=none;html=1;verticalAlign=middle;whiteSpace=wrap;rounded=0;" vertex="1" parent="1">
          <mxGeometry x="251" y="550" width="60" height="30" as="geometry" />
        </mxCell>
        <mxCell id="_AobSJzkWbKVCBCX7303-33" value="" style="endArrow=none;html=1;rounded=0;entryX=0.5;entryY=1;entryDx=0;entryDy=0;exitX=0.5;exitY=0;exitDx=0;exitDy=0;" edge="1" parent="1" source="_AobSJzkWbKVCBCX7303-32" target="_AobSJzkWbKVCBCX7303-31">
          <mxGeometry width="50" height="50" relative="1" as="geometry">
            <mxPoint x="250" y="580" as="sourcePoint" />
            <mxPoint x="300" y="530" as="targetPoint" />
          </mxGeometry>
        </mxCell>
        <mxCell id="_AobSJzkWbKVCBCX7303-34" value="&lt;div style=&quot;line-height: 100%;&quot;&gt;&lt;span style=&quot;font-family: &amp;quot;Courier New&amp;quot;; background-color: transparent; color: light-dark(rgb(0, 0, 0), rgb(255, 255, 255));&quot;&gt;p(c)&lt;/span&gt;&lt;/div&gt;&lt;div style=&quot;line-height: 100%;&quot;&gt;&lt;span style=&quot;font-family: &amp;quot;Courier New&amp;quot;; background-color: transparent; color: light-dark(rgb(0, 0, 0), rgb(255, 255, 255));&quot;&gt;[l1]&lt;/span&gt;&lt;/div&gt;" style="text;strokeColor=none;align=center;fillColor=none;html=1;verticalAlign=middle;whiteSpace=wrap;rounded=0;spacing=2;" vertex="1" parent="1">
          <mxGeometry x="198.5" y="450" width="45" height="30" as="geometry" />
        </mxCell>
        <mxCell id="_AobSJzkWbKVCBCX7303-35" value="&lt;div style=&quot;line-height: 100%;&quot;&gt;&lt;font face=&quot;Courier New&quot;&gt;p(c)&lt;/font&gt;&lt;div&gt;&lt;font face=&quot;Courier New&quot;&gt;[l1:1]&lt;/font&gt;&lt;/div&gt;&lt;/div&gt;" style="text;strokeColor=none;align=center;fillColor=none;html=1;verticalAlign=middle;whiteSpace=wrap;rounded=0;" vertex="1" parent="1">
          <mxGeometry x="310" y="550" width="60" height="30" as="geometry" />
        </mxCell>
        <mxCell id="_AobSJzkWbKVCBCX7303-36" value="" style="endArrow=none;html=1;rounded=0;entryX=0.5;entryY=1;entryDx=0;entryDy=0;exitX=0.5;exitY=0;exitDx=0;exitDy=0;" edge="1" parent="1" source="_AobSJzkWbKVCBCX7303-35" target="_AobSJzkWbKVCBCX7303-28">
          <mxGeometry width="50" height="50" relative="1" as="geometry">
            <mxPoint x="250" y="580" as="sourcePoint" />
            <mxPoint x="300" y="530" as="targetPoint" />
          </mxGeometry>
        </mxCell>
        <mxCell id="_AobSJzkWbKVCBCX7303-37" value="&lt;div style=&quot;line-height: 100%;&quot;&gt;&lt;font face=&quot;Courier New&quot;&gt;$false&lt;/font&gt;&lt;br&gt;&lt;div&gt;&lt;span style=&quot;font-family: &amp;quot;Courier New&amp;quot;; background-color: transparent; color: light-dark(rgb(0, 0, 0), rgb(255, 255, 255));&quot;&gt;[t11]&lt;/span&gt;&lt;/div&gt;&lt;/div&gt;" style="text;strokeColor=none;align=center;fillColor=none;html=1;verticalAlign=middle;whiteSpace=wrap;rounded=0;" vertex="1" parent="1">
          <mxGeometry x="310" y="600" width="60" height="30" as="geometry" />
        </mxCell>
        <mxCell id="_AobSJzkWbKVCBCX7303-38" value="" style="endArrow=none;html=1;rounded=0;entryX=0.5;entryY=1;entryDx=0;entryDy=0;exitX=0.5;exitY=0;exitDx=0;exitDy=0;" edge="1" parent="1" source="_AobSJzkWbKVCBCX7303-37" target="_AobSJzkWbKVCBCX7303-35">
          <mxGeometry width="50" height="50" relative="1" as="geometry">
            <mxPoint x="250" y="610" as="sourcePoint" />
            <mxPoint x="300" y="560" as="targetPoint" />
          </mxGeometry>
        </mxCell>
        <mxCell id="_AobSJzkWbKVCBCX7303-39" value="&lt;div style=&quot;line-height: 100%;&quot;&gt;&lt;font face=&quot;Courier New&quot;&gt;~s(sk1)&lt;/font&gt;&lt;br&gt;&lt;div&gt;&lt;div&gt;&lt;span style=&quot;font-family: &amp;quot;Courier New&amp;quot;; background-color: transparent; color: light-dark(rgb(0, 0, 0), rgb(255, 255, 255));&quot;&gt;[t1:2]&lt;/span&gt;&lt;/div&gt;&lt;/div&gt;&lt;/div&gt;" style="text;strokeColor=none;align=center;fillColor=none;html=1;verticalAlign=middle;whiteSpace=wrap;rounded=0;" vertex="1" parent="1">
          <mxGeometry x="441" y="400" width="60" height="30" as="geometry" />
        </mxCell>
        <mxCell id="_AobSJzkWbKVCBCX7303-40" value="&lt;div style=&quot;line-height: 100%;&quot;&gt;&lt;span style=&quot;background-color: transparent; color: light-dark(rgb(0, 0, 0), rgb(255, 255, 255)); font-family: &amp;quot;Courier New&amp;quot;;&quot;&gt;~q(b)&lt;/span&gt;&lt;/div&gt;&lt;div style=&quot;line-height: 100%;&quot;&gt;&lt;span style=&quot;font-family: &amp;quot;Courier New&amp;quot;; background-color: transparent; color: light-dark(rgb(0, 0, 0), rgb(255, 255, 255));&quot;&gt;[l2]&lt;/span&gt;&lt;/div&gt;" style="text;strokeColor=none;align=center;fillColor=none;html=1;verticalAlign=middle;whiteSpace=wrap;rounded=0;spacing=2;" vertex="1" parent="1">
          <mxGeometry x="200" y="400" width="40" height="30" as="geometry" />
        </mxCell>
        <mxCell id="_AobSJzkWbKVCBCX7303-41" value="&lt;div style=&quot;line-height: 100%;&quot;&gt;&lt;font face=&quot;Courier New&quot;&gt;s(sk1)&lt;/font&gt;&lt;br&gt;&lt;div&gt;&lt;div&gt;&lt;span style=&quot;font-family: &amp;quot;Courier New&amp;quot;; background-color: transparent; color: light-dark(rgb(0, 0, 0), rgb(255, 255, 255));&quot;&gt;[t12:1]&lt;/span&gt;&lt;/div&gt;&lt;/div&gt;&lt;/div&gt;" style="text;strokeColor=none;align=center;fillColor=none;html=1;verticalAlign=middle;whiteSpace=wrap;rounded=0;" vertex="1" parent="1">
          <mxGeometry x="371" y="450" width="60" height="30" as="geometry" />
        </mxCell>
        <mxCell id="_AobSJzkWbKVCBCX7303-42" value="&lt;div style=&quot;line-height: 100%;&quot;&gt;&lt;font face=&quot;Courier New&quot;&gt;$false&lt;/font&gt;&lt;br&gt;&lt;div&gt;&lt;span style=&quot;font-family: &amp;quot;Courier New&amp;quot;; background-color: transparent; color: light-dark(rgb(0, 0, 0), rgb(255, 255, 255));&quot;&gt;[t12&lt;/span&gt;&lt;span style=&quot;background-color: transparent; color: light-dark(rgb(0, 0, 0), rgb(255, 255, 255)); font-family: &amp;quot;Courier New&amp;quot;;&quot;&gt;]&lt;/span&gt;&lt;/div&gt;&lt;/div&gt;" style="text;strokeColor=none;align=center;fillColor=none;html=1;verticalAlign=middle;whiteSpace=wrap;rounded=0;" vertex="1" parent="1">
          <mxGeometry x="371" y="500" width="60" height="30" as="geometry" />
        </mxCell>
        <mxCell id="_AobSJzkWbKVCBCX7303-43" value="" style="endArrow=none;html=1;rounded=0;entryX=0.5;entryY=1;entryDx=0;entryDy=0;exitX=0.5;exitY=0;exitDx=0;exitDy=0;" edge="1" parent="1" source="_AobSJzkWbKVCBCX7303-41" target="_AobSJzkWbKVCBCX7303-39">
          <mxGeometry width="50" height="50" relative="1" as="geometry">
            <mxPoint x="241" y="510" as="sourcePoint" />
            <mxPoint x="291" y="460" as="targetPoint" />
          </mxGeometry>
        </mxCell>
        <mxCell id="_AobSJzkWbKVCBCX7303-44" value="" style="endArrow=none;html=1;rounded=0;entryX=0.5;entryY=1;entryDx=0;entryDy=0;exitX=0.5;exitY=0;exitDx=0;exitDy=0;" edge="1" parent="1" source="_AobSJzkWbKVCBCX7303-42" target="_AobSJzkWbKVCBCX7303-41">
          <mxGeometry width="50" height="50" relative="1" as="geometry">
            <mxPoint x="241" y="510" as="sourcePoint" />
            <mxPoint x="291" y="460" as="targetPoint" />
          </mxGeometry>
        </mxCell>
        <mxCell id="_AobSJzkWbKVCBCX7303-45" value="&lt;div style=&quot;line-height: 100%;&quot;&gt;&lt;font face=&quot;Courier New&quot;&gt;q(b)&lt;/font&gt;&lt;div&gt;&lt;div&gt;&lt;span style=&quot;font-family: &amp;quot;Courier New&amp;quot;; background-color: transparent; color: light-dark(rgb(0, 0, 0), rgb(255, 255, 255));&quot;&gt;[t12:2]&lt;/span&gt;&lt;/div&gt;&lt;/div&gt;&lt;/div&gt;" style="text;strokeColor=none;align=center;fillColor=none;html=1;verticalAlign=middle;whiteSpace=wrap;rounded=0;" vertex="1" parent="1">
          <mxGeometry x="441" y="450" width="60" height="30" as="geometry" />
        </mxCell>
        <mxCell id="_AobSJzkWbKVCBCX7303-46" value="" style="endArrow=none;html=1;rounded=0;entryX=0.5;entryY=1;entryDx=0;entryDy=0;exitX=0.5;exitY=0;exitDx=0;exitDy=0;" edge="1" parent="1" source="_AobSJzkWbKVCBCX7303-45" target="_AobSJzkWbKVCBCX7303-39">
          <mxGeometry width="50" height="50" relative="1" as="geometry">
            <mxPoint x="291" y="510" as="sourcePoint" />
            <mxPoint x="341" y="460" as="targetPoint" />
          </mxGeometry>
        </mxCell>
        <mxCell id="_AobSJzkWbKVCBCX7303-47" value="&lt;div style=&quot;line-height: 100%;&quot;&gt;&lt;span style=&quot;font-family: &amp;quot;Courier New&amp;quot;; background-color: transparent; color: light-dark(rgb(0, 0, 0), rgb(255, 255, 255));&quot;&gt;~q(b)[l2]&lt;/span&gt;&lt;/div&gt;" style="text;strokeColor=none;align=center;fillColor=none;html=1;verticalAlign=middle;whiteSpace=wrap;rounded=0;spacing=2;" vertex="1" parent="1">
          <mxGeometry x="446" y="500" width="50" height="30" as="geometry" />
        </mxCell>
        <mxCell id="_AobSJzkWbKVCBCX7303-48" value="" style="endArrow=none;html=1;rounded=0;entryX=0.5;entryY=1;entryDx=0;entryDy=0;exitX=0.5;exitY=0;exitDx=0;exitDy=0;" edge="1" parent="1" source="_AobSJzkWbKVCBCX7303-47" target="_AobSJzkWbKVCBCX7303-45">
          <mxGeometry width="50" height="50" relative="1" as="geometry">
            <mxPoint x="291" y="510" as="sourcePoint" />
            <mxPoint x="341" y="460" as="targetPoint" />
          </mxGeometry>
        </mxCell>
        <mxCell id="_AobSJzkWbKVCBCX7303-49" value="&lt;div style=&quot;line-height: 100%;&quot;&gt;&lt;font face=&quot;Courier New&quot;&gt;$false&lt;/font&gt;&lt;br&gt;&lt;div&gt;&lt;span style=&quot;font-family: &amp;quot;Courier New&amp;quot;; background-color: transparent; color: light-dark(rgb(0, 0, 0), rgb(255, 255, 255));&quot;&gt;[t13]&lt;/span&gt;&lt;/div&gt;&lt;/div&gt;" style="text;strokeColor=none;align=center;fillColor=none;html=1;verticalAlign=middle;whiteSpace=wrap;rounded=0;" vertex="1" parent="1">
          <mxGeometry x="441" y="550" width="60" height="30" as="geometry" />
        </mxCell>
        <mxCell id="_AobSJzkWbKVCBCX7303-50" value="" style="endArrow=none;html=1;rounded=0;entryX=0.5;entryY=1;entryDx=0;entryDy=0;exitX=0.5;exitY=0;exitDx=0;exitDy=0;" edge="1" parent="1" source="_AobSJzkWbKVCBCX7303-49" target="_AobSJzkWbKVCBCX7303-47">
          <mxGeometry width="50" height="50" relative="1" as="geometry">
            <mxPoint x="291" y="510" as="sourcePoint" />
            <mxPoint x="341" y="460" as="targetPoint" />
          </mxGeometry>
        </mxCell>
        <mxCell id="_AobSJzkWbKVCBCX7303-51" value="&lt;div style=&quot;line-height: 100%;&quot;&gt;&lt;font face=&quot;Courier New&quot;&gt;~p(c)&lt;/font&gt;&lt;br&gt;&lt;div&gt;&lt;span style=&quot;font-family: &amp;quot;Courier New&amp;quot;; background-color: transparent; color: light-dark(rgb(0, 0, 0), rgb(255, 255, 255));&quot;&gt;[t12:3]&lt;/span&gt;&lt;/div&gt;&lt;/div&gt;" style="text;strokeColor=none;align=center;fillColor=none;html=1;verticalAlign=middle;whiteSpace=wrap;rounded=0;" vertex="1" parent="1">
          <mxGeometry x="531" y="450" width="60" height="30" as="geometry" />
        </mxCell>
        <mxCell id="_AobSJzkWbKVCBCX7303-52" value="" style="endArrow=none;html=1;rounded=0;exitX=0.5;exitY=0;exitDx=0;exitDy=0;entryX=0.5;entryY=1;entryDx=0;entryDy=0;" edge="1" parent="1" source="_AobSJzkWbKVCBCX7303-51" target="_AobSJzkWbKVCBCX7303-39">
          <mxGeometry width="50" height="50" relative="1" as="geometry">
            <mxPoint x="301" y="510" as="sourcePoint" />
            <mxPoint x="481" y="430" as="targetPoint" />
          </mxGeometry>
        </mxCell>
        <mxCell id="_AobSJzkWbKVCBCX7303-53" value="&lt;div style=&quot;line-height: 100%;&quot;&gt;&lt;div&gt;&lt;span style=&quot;font-family: &amp;quot;Courier New&amp;quot;; background-color: transparent; color: light-dark(rgb(0, 0, 0), rgb(255, 255, 255));&quot;&gt;p(c)&lt;/span&gt;&lt;/div&gt;&lt;div&gt;&lt;span style=&quot;font-family: &amp;quot;Courier New&amp;quot;; background-color: transparent; color: light-dark(rgb(0, 0, 0), rgb(255, 255, 255));&quot;&gt;[t15:1]&lt;/span&gt;&lt;/div&gt;&lt;/div&gt;" style="text;strokeColor=none;align=center;fillColor=none;html=1;verticalAlign=middle;whiteSpace=wrap;rounded=0;" vertex="1" parent="1">
          <mxGeometry x="501" y="500" width="60" height="30" as="geometry" />
        </mxCell>
        <mxCell id="_AobSJzkWbKVCBCX7303-54" value="&lt;div style=&quot;line-height: 100%;&quot;&gt;&lt;font face=&quot;Courier New&quot;&gt;q(b)&lt;/font&gt;&lt;div&gt;&lt;div&gt;&lt;span style=&quot;font-family: &amp;quot;Courier New&amp;quot;; background-color: transparent; color: light-dark(rgb(0, 0, 0), rgb(255, 255, 255));&quot;&gt;[t15:2]&lt;/span&gt;&lt;/div&gt;&lt;/div&gt;&lt;/div&gt;" style="text;strokeColor=none;align=center;fillColor=none;html=1;verticalAlign=middle;whiteSpace=wrap;rounded=0;" vertex="1" parent="1">
          <mxGeometry x="561" y="500" width="60" height="30" as="geometry" />
        </mxCell>
        <mxCell id="_AobSJzkWbKVCBCX7303-55" value="" style="endArrow=none;html=1;rounded=0;entryX=0.5;entryY=1;entryDx=0;entryDy=0;exitX=0.5;exitY=0;exitDx=0;exitDy=0;" edge="1" parent="1" source="_AobSJzkWbKVCBCX7303-53" target="_AobSJzkWbKVCBCX7303-51">
          <mxGeometry width="50" height="50" relative="1" as="geometry">
            <mxPoint x="281" y="510" as="sourcePoint" />
            <mxPoint x="331" y="460" as="targetPoint" />
          </mxGeometry>
        </mxCell>
        <mxCell id="_AobSJzkWbKVCBCX7303-56" value="" style="endArrow=none;html=1;rounded=0;entryX=0.5;entryY=1;entryDx=0;entryDy=0;exitX=0.5;exitY=0;exitDx=0;exitDy=0;" edge="1" parent="1" source="_AobSJzkWbKVCBCX7303-54" target="_AobSJzkWbKVCBCX7303-51">
          <mxGeometry width="50" height="50" relative="1" as="geometry">
            <mxPoint x="281" y="510" as="sourcePoint" />
            <mxPoint x="331" y="460" as="targetPoint" />
          </mxGeometry>
        </mxCell>
        <mxCell id="_AobSJzkWbKVCBCX7303-58" value="&lt;div style=&quot;line-height: 100%;&quot;&gt;&lt;font face=&quot;Courier New&quot;&gt;$false&lt;/font&gt;&lt;br&gt;&lt;div&gt;&lt;span style=&quot;font-family: &amp;quot;Courier New&amp;quot;; background-color: transparent; color: light-dark(rgb(0, 0, 0), rgb(255, 255, 255));&quot;&gt;[t16]&lt;/span&gt;&lt;/div&gt;&lt;/div&gt;" style="text;strokeColor=none;align=center;fillColor=none;html=1;verticalAlign=middle;whiteSpace=wrap;rounded=0;" vertex="1" parent="1">
          <mxGeometry x="501" y="550" width="60" height="30" as="geometry" />
        </mxCell>
        <mxCell id="_AobSJzkWbKVCBCX7303-59" value="" style="endArrow=none;html=1;rounded=0;entryX=0.5;entryY=1;entryDx=0;entryDy=0;exitX=0.5;exitY=0;exitDx=0;exitDy=0;" edge="1" parent="1" source="_AobSJzkWbKVCBCX7303-58" target="_AobSJzkWbKVCBCX7303-53">
          <mxGeometry width="50" height="50" relative="1" as="geometry">
            <mxPoint x="331" y="510" as="sourcePoint" />
            <mxPoint x="381" y="460" as="targetPoint" />
          </mxGeometry>
        </mxCell>
        <mxCell id="_AobSJzkWbKVCBCX7303-60" value="&lt;div style=&quot;line-height: 100%;&quot;&gt;&lt;span style=&quot;font-family: &amp;quot;Courier New&amp;quot;; background-color: transparent; color: light-dark(rgb(0, 0, 0), rgb(255, 255, 255));&quot;&gt;~q(b)[l2]&lt;/span&gt;&lt;/div&gt;" style="text;strokeColor=none;align=center;fillColor=none;html=1;verticalAlign=middle;whiteSpace=wrap;rounded=0;spacing=2;" vertex="1" parent="1">
          <mxGeometry x="566" y="550" width="50" height="30" as="geometry" />
        </mxCell>
        <mxCell id="_AobSJzkWbKVCBCX7303-61" value="" style="endArrow=none;html=1;rounded=0;entryX=0.5;entryY=1;entryDx=0;entryDy=0;exitX=0.5;exitY=0;exitDx=0;exitDy=0;" edge="1" parent="1" source="_AobSJzkWbKVCBCX7303-60" target="_AobSJzkWbKVCBCX7303-54">
          <mxGeometry width="50" height="50" relative="1" as="geometry">
            <mxPoint x="331" y="510" as="sourcePoint" />
            <mxPoint x="381" y="460" as="targetPoint" />
          </mxGeometry>
        </mxCell>
        <mxCell id="_AobSJzkWbKVCBCX7303-62" value="&lt;div style=&quot;line-height: 100%;&quot;&gt;&lt;font face=&quot;Courier New&quot;&gt;$false&lt;/font&gt;&lt;br&gt;&lt;div&gt;&lt;span style=&quot;font-family: &amp;quot;Courier New&amp;quot;; background-color: transparent; color: light-dark(rgb(0, 0, 0), rgb(255, 255, 255));&quot;&gt;[t17]&lt;/span&gt;&lt;/div&gt;&lt;/div&gt;" style="text;strokeColor=none;align=center;fillColor=none;html=1;verticalAlign=middle;whiteSpace=wrap;rounded=0;" vertex="1" parent="1">
          <mxGeometry x="561" y="600" width="60" height="30" as="geometry" />
        </mxCell>
        <mxCell id="_AobSJzkWbKVCBCX7303-63" value="" style="endArrow=none;html=1;rounded=0;entryX=0.5;entryY=1;entryDx=0;entryDy=0;exitX=0.5;exitY=0;exitDx=0;exitDy=0;" edge="1" parent="1" source="_AobSJzkWbKVCBCX7303-62" target="_AobSJzkWbKVCBCX7303-60">
          <mxGeometry width="50" height="50" relative="1" as="geometry">
            <mxPoint x="331" y="510" as="sourcePoint" />
            <mxPoint x="381" y="460" as="targetPoint" />
          </mxGeometry>
        </mxCell>
        <mxCell id="_AobSJzkWbKVCBCX7303-65" value="" style="endArrow=classic;html=1;rounded=0;entryX=0;entryY=0.5;entryDx=0;entryDy=0;" edge="1" parent="1" target="_AobSJzkWbKVCBCX7303-40">
          <mxGeometry width="50" height="50" relative="1" as="geometry">
            <mxPoint x="180" y="415" as="sourcePoint" />
            <mxPoint x="380" y="460" as="targetPoint" />
          </mxGeometry>
        </mxCell>
        <mxCell id="_AobSJzkWbKVCBCX7303-66" value="" style="endArrow=classic;html=1;rounded=0;exitX=1;exitY=0.5;exitDx=0;exitDy=0;" edge="1" parent="1">
          <mxGeometry width="50" height="50" relative="1" as="geometry">
            <mxPoint x="181" y="465" as="sourcePoint" />
            <mxPoint x="201" y="465" as="targetPoint" />
          </mxGeometry>
        </mxCell>
        <mxCell id="_AobSJzkWbKVCBCX7303-74" value="&lt;div style=&quot;line-height: 100%;&quot;&gt;&lt;font face=&quot;Courier New&quot;&gt;q(b)&lt;/font&gt;&lt;div&gt;&lt;div&gt;&lt;span style=&quot;font-family: &amp;quot;Courier New&amp;quot;; background-color: transparent; color: light-dark(rgb(0, 0, 0), rgb(255, 255, 255));&quot;&gt;[t1:1]&lt;/span&gt;&lt;/div&gt;&lt;/div&gt;&lt;/div&gt;" style="text;strokeColor=none;align=center;fillColor=none;html=1;verticalAlign=middle;whiteSpace=wrap;rounded=0;" vertex="1" parent="1">
          <mxGeometry x="200" y="600" width="60" height="30" as="geometry" />
        </mxCell>
        <mxCell id="_AobSJzkWbKVCBCX7303-75" value="" style="endArrow=none;html=1;rounded=0;exitX=0.5;exitY=0;exitDx=0;exitDy=0;" edge="1" parent="1" source="_AobSJzkWbKVCBCX7303-24">
          <mxGeometry width="50" height="50" relative="1" as="geometry">
            <mxPoint x="230" y="640" as="sourcePoint" />
            <mxPoint x="230" y="630" as="targetPoint" />
          </mxGeometry>
        </mxCell>
        <mxCell id="_AobSJzkWbKVCBCX7303-80" value="" style="endArrow=none;html=1;rounded=0;entryX=0.5;entryY=0;entryDx=0;entryDy=0;exitX=0.5;exitY=1;exitDx=0;exitDy=0;" edge="1" parent="1" source="_AobSJzkWbKVCBCX7303-19" target="_AobSJzkWbKVCBCX7303-74">
          <mxGeometry width="50" height="50" relative="1" as="geometry">
            <mxPoint x="240" y="520" as="sourcePoint" />
            <mxPoint x="200" y="530" as="targetPoint" />
          </mxGeometry>
        </mxCell>
        <mxCell id="_AobSJzkWbKVCBCX7303-19" value="&lt;div style=&quot;line-height: 100%;&quot;&gt;&lt;font face=&quot;Courier New&quot;&gt;~q(b)&lt;/font&gt;&lt;br&gt;&lt;div&gt;&lt;span style=&quot;font-family: &amp;quot;Courier New&amp;quot;; background-color: transparent; color: light-dark(rgb(0, 0, 0), rgb(255, 255, 255));&quot;&gt;[t6&lt;/span&gt;&lt;span style=&quot;background-color: transparent; color: light-dark(rgb(0, 0, 0), rgb(255, 255, 255)); font-family: &amp;quot;Courier New&amp;quot;;&quot;&gt;:2]&lt;/span&gt;&lt;/div&gt;&lt;/div&gt;" style="text;strokeColor=none;align=center;fillColor=none;html=1;verticalAlign=middle;whiteSpace=wrap;rounded=0;" vertex="1" parent="1">
          <mxGeometry x="200" y="550" width="60" height="30" as="geometry" />
        </mxCell>
      </root>
    </mxGraphModel>
  </diagram>
</mxfile>
